<?xml version="1.0" encoding="utf-8"?>
<!-- Generator: Adobe Illustrator 18.1.0, SVG Export Plug-In . SVG Version: 6.00 Build 0)  -->
<svg version="1.1" id="Слой_1" xmlns="http://www.w3.org/2000/svg" xmlns:xlink="http://www.w3.org/1999/xlink" x="0px" y="0px"
	 viewBox="0 0 400 300" enable-background="new 0 0 400 300" xml:space="preserve">
<g>
	<g>
		<path fill="#95A2B3" d="M354.3,245.8h-39.5l-7.6,12.1l27.4,30.9l27.3-30.9L354.3,245.8z M358.8,256.9h-11.6l5.6-9.1L358.8,256.9z
			 M350.2,247.3l-4.6,7.6l-8.1-7.6H350.2z M344.7,256.9h-20.2l10.1-9.1L344.7,256.9z M331.5,247.3l-8.1,7.6l-4.6-7.6
			C318.8,247.3,331.5,247.3,331.5,247.3z M316.3,247.8l5.6,9.1h-11.6L316.3,247.8z M310.8,258.9h11.6l9.6,23.8L310.8,258.9z
			 M325,258.9h19.2l-9.6,23.8L325,258.9z M337.1,282.7l9.6-23.8h11.6L337.1,282.7z"/>
	</g>
</g>
<path fill="#FFFFFF" d="M80,197.2H59c0.9,5.1,3.9,8.5,6.7,10.7h3.7c0.8,0,1.5,0.7,1.5,1.5s-0.7,1.5-1.5,1.5H32.8
	c-0.8,0-1.5-0.7-1.5-1.5s0.7-1.5,1.5-1.5h3.7c2.8-2.2,5.8-5.6,6.7-10.7H22.2c-3.4,0-6.1-2.7-6.1-6.1v-35c0-3.4,2.7-6.1,6.1-6.1h57.9
	c3.4,0,6.1,2.7,6.1,6.1v35C86.1,194.5,83.4,197.2,80,197.2z M41.1,207.9h20.1c-2.5-2.5-4.6-6-5.3-10.7h-9.6
	C45.6,201.8,43.4,205.3,41.1,207.9z M83.1,156.1c0-1.7-1.3-3-3-3H22.2c-1.7,0-3,1.3-3,3V185l0,0h64L83.1,156.1L83.1,156.1z
	 M83.1,188.1h-64l0,0v3c0,1.7,1.3,3,3,3h21.3l0,0h15.2l0,0H80c1.7,0,3-1.3,3-3L83.1,188.1L83.1,188.1z M51.1,192.7
	c-0.8,0-1.5-0.7-1.5-1.5s0.7-1.5,1.5-1.5c0.8,0,1.5,0.7,1.5,1.5S51.9,192.7,51.1,192.7z"/>
<g>
	<path id="Facebook" fill="#C4D2DF" d="M172.3,180.2c0,0.4,0,2.3,0,2.3h-1.7v2.9h1.7v8.5h3.5v-8.5h2.4c0,0,0.2-1.4,0.3-2.9
		c-0.3,0-2.7,0-2.7,0s0-1.7,0-2c0-0.3,0.4-0.7,0.8-0.7c0.4,0,1.2,0,1.9,0c0-0.4,0-1.7,0-3c-1,0-2.1,0-2.6,0
		C172.2,176.9,172.3,179.7,172.3,180.2z"/>
</g>
<g>
	<g>
		<path fill="#C4D2DF" d="M313.5,178.1h-4.1c-1.8,0-3.1,0.4-4.2,1.3c-0.9,0.8-1.4,1.9-1.4,3c0,1.7,1.3,3.5,3.7,3.5
			c0.2,0,0.5,0,0.7,0l0,0.1c-0.1,0.2-0.2,0.4-0.2,0.8c0,0.7,0.3,1.1,0.6,1.5l0,0l-0.1,0c-1,0.1-2.8,0.2-4.2,1
			c-1.6,0.9-1.7,2.3-1.7,2.7c0,1.6,1.5,3.2,4.8,3.2c3.8,0,5.8-2.1,5.8-4.2c0-1.5-0.9-2.3-1.9-3.1l-0.8-0.6c-0.2-0.2-0.6-0.5-0.6-0.9
			c0-0.5,0.3-0.8,0.6-1.1l0,0c0.9-0.7,1.9-1.5,1.9-3.2c0-1.7-1.1-2.6-1.6-3h1.3c0,0,0,0,0,0l1.2-0.7
			C313.6,178.3,313.6,178.2,313.5,178.1C313.6,178.1,313.6,178.1,313.5,178.1z M308.6,194.2c-2.3,0-3.9-1.1-3.9-2.7
			c0-1.1,0.6-1.8,1.9-2.3c1-0.3,2.3-0.4,2.3-0.4c0.2,0,0.3,0,0.5,0c1.6,1.2,2.4,1.8,2.4,2.9C311.9,193.3,310.6,194.2,308.6,194.2z
			 M308.6,185.3c-2,0-2.8-2.6-2.8-3.9c0-0.7,0.2-1.2,0.5-1.6c0.4-0.4,1-0.7,1.5-0.7c1.8,0,2.8,2.4,2.8,4.1c0,0.3,0,1.1-0.6,1.6
			C309.7,185,309.1,185.3,308.6,185.3z"/>
		<path fill="#C4D2DF" d="M319.2,186.1h-2.1v-2.1c0,0,0-0.1-0.1-0.1h-0.9c0,0-0.1,0-0.1,0.1v2.1h-2.1c0,0-0.1,0-0.1,0.1v0.9
			c0,0,0,0.1,0.1,0.1h2.1v2.1c0,0,0,0.1,0.1,0.1h0.9c0,0,0.1,0,0.1-0.1v-2.1h2.1c0,0,0.1,0,0.1-0.1L319.2,186.1
			C319.3,186.1,319.3,186.1,319.2,186.1z"/>
	</g>
</g>
<path fill="#C6502B" d="M17.9,36.6h58.7L71,96.3l-23.8,6.5l-23.8-6.6L17.9,36.6z"/>
<g>
	<g>
		<path fill="#FFFFFF" d="M29,22.7h-4.1v-4.9h-3.5v13.1h3.5v-5.3H29v5.3h3.5V17.9H29V22.7z M34.4,20.7h3.2v10.2h3.5V20.7h3.2v-2.9
			h-10C34.4,17.9,34.4,20.7,34.4,20.7z M53.8,27.2L53.8,27.2l-2.9-9.3h-4.8v13.1h3.1v-5.7c0-0.9-0.1-2.1-0.2-3.8h0.1l2.7,9.4h3.3
			l2.7-9.4h0.1c-0.1,1.4-0.1,2.3-0.1,2.7s0,0.7,0,1v5.8H61V17.9h-4.8L53.8,27.2z M67.5,28.1V17.9H64v13.1h8.5v-2.9
			C72.5,28.1,67.5,28.1,67.5,28.1z"/>
	</g>
</g>
<path fill="#FFFFFF" d="M28.8,48.8h36.6l-0.8,7.6H36.9l0.7,7.1h26.6L62.1,86l-15,4.2l-14.9-4l-0.9-11.7h7.2l0.7,6l8.1,2.1l8.1-2
	l0.9-9.5H31L28.8,48.8z"/>
<g>
	<path id="LinkedIn" fill="#C4D2DF" d="M379.7,187.3v6.6h-3.8v-6.1c0-1.5-0.6-2.6-1.9-2.6c-1.1,0-1.7,0.7-2,1.4
		c-0.1,0.2-0.1,0.6-0.1,0.9v6.4H368c0,0,0.1-10.4,0-11.5h3.8v1.6c0,0,0,0,0,0h0v0c0.5-0.8,1.4-1.9,3.4-1.9
		C377.8,182.1,379.7,183.8,379.7,187.3z M364,176.9c-1.3,0-2.2,0.9-2.2,2c0,1.1,0.8,2,2.1,2h0c1.3,0,2.2-0.9,2.2-2
		C366.1,177.7,365.3,176.9,364,176.9z M362.1,193.9h3.8v-11.5h-3.8V193.9z"/>
</g>
<path fill="#FFFFFF" d="M219.9,105.7h-24.7c-3,0-5.5-2.5-5.5-5.5V48.2c0-3,2.5-5.5,5.5-5.5h24.7c3,0,5.5,2.5,5.5,5.5v52
	C225.4,103.3,223,105.7,219.9,105.7z M222.7,48.2c0-1.5-1.2-2.7-2.7-2.7h-24.7c-1.5,0-2.7,1.2-2.7,2.7v5.5h30.1L222.7,48.2
	L222.7,48.2z M222.7,56.4h-30.2V92h30.1L222.7,56.4L222.7,56.4z M222.7,94.8h-30.2v5.5c0,1.5,1.2,2.7,2.7,2.7h24.7
	c1.5,0,2.7-1.2,2.7-2.7L222.7,94.8L222.7,94.8z M207.6,101.6c-1.5,0-2.7-1.2-2.7-2.7s1.2-2.7,2.7-2.7c1.5,0,2.7,1.2,2.7,2.7
	C210.4,100.4,209.1,101.6,207.6,101.6z M198.1,60.5h2.7c0.8,0,1.4,0.6,1.4,1.4v2.7c0,0.8-0.6,1.4-1.4,1.4h-2.7
	c-0.8,0-1.4-0.6-1.4-1.4v-2.7C196.7,61.2,197.3,60.5,198.1,60.5z M198.1,70.1h2.7c0.8,0,1.4,0.6,1.4,1.4v2.7c0,0.8-0.6,1.4-1.4,1.4
	h-2.7c-0.8,0-1.4-0.6-1.4-1.4v-2.7C196.7,70.7,197.3,70.1,198.1,70.1z M198.1,79.7h2.7c0.8,0,1.4,0.6,1.4,1.4v2.7
	c0,0.8-0.6,1.4-1.4,1.4h-2.7c-0.8,0-1.4-0.6-1.4-1.4v-2.7C196.7,80.3,197.3,79.7,198.1,79.7z M206.2,60.5h2.7c0.8,0,1.4,0.6,1.4,1.4
	v2.7c0,0.8-0.6,1.4-1.4,1.4h-2.7c-0.8,0-1.4-0.6-1.4-1.4v-2.7C204.9,61.2,205.5,60.5,206.2,60.5z M206.2,70.1h2.7
	c0.8,0,1.4,0.6,1.4,1.4v2.7c0,0.8-0.6,1.4-1.4,1.4h-2.7c-0.8,0-1.4-0.6-1.4-1.4v-2.7C204.9,70.7,205.5,70.1,206.2,70.1z M206.2,79.7
	h2.7c0.8,0,1.4,0.6,1.4,1.4v2.7c0,0.8-0.6,1.4-1.4,1.4h-2.7c-0.8,0-1.4-0.6-1.4-1.4v-2.7C204.9,80.3,205.5,79.7,206.2,79.7z
	 M214.5,60.5h2.7c0.8,0,1.4,0.6,1.4,1.4v2.7c0,0.8-0.6,1.4-1.4,1.4h-2.7c-0.8,0-1.4-0.6-1.4-1.4v-2.7
	C213.1,61.2,213.7,60.5,214.5,60.5z M214.5,70.1h2.7c0.8,0,1.4,0.6,1.4,1.4v2.7c0,0.8-0.6,1.4-1.4,1.4h-2.7c-0.8,0-1.4-0.6-1.4-1.4
	v-2.7C213.1,70.7,213.7,70.1,214.5,70.1z M203.5,48.2h8.2c0.8,0,1.4,0.6,1.4,1.4s-0.6,1.4-1.4,1.4h-8.2c-0.8,0-1.4-0.6-1.4-1.4
	S202.7,48.2,203.5,48.2z"/>
<g>
	<g>
		<path fill="#95A2B3" d="M208.4,247.3h-14.3v-7c0-0.8-0.7-1.4-1.6-1.4h-15.8c-0.9,0-1.6,0.6-1.6,1.4v7H161c-0.9,0-1.6,0.6-1.6,1.4
			v33.7c0,0.8,0.7,1.4,1.6,1.4h47.4c0.9,0,1.6-0.6,1.6-1.4v-33.7C210,247.9,209.3,247.3,208.4,247.3z M178.4,243.1
			c0-0.8,0.7-1.4,1.6-1.4h9.5c0.9,0,1.6,0.6,1.6,1.4v4.2h-12.6V243.1z M206.9,279.6c0,0.8-0.7,1.4-1.6,1.4h-41.1
			c-0.9,0-1.6-0.6-1.6-1.4v-12.7h15.8v2.8H191v-2.8h15.8v12.7H206.9z M181.6,266.9v-2.8h6.3v2.8H181.6z M206.9,264.1h-15.8v-2.8
			h-12.7v2.8h-15.8v-12.6c0-0.8,0.7-1.4,1.6-1.4h41.1c0.9,0,1.6,0.6,1.6,1.4V264.1L206.9,264.1z"/>
	</g>
</g>
<path fill="#95A2B3" d="M74.9,275.9L74.9,275.9C74.9,275.9,74.9,275.9,74.9,275.9L74.9,275.9c0,0.7-0.6,1.3-1.3,1.3l-11.2-0.1
	c-0.7,0-1.3-0.6-1.3-1.3c0-0.7,0.6-1.3,1.3-1.3h10c0-0.4,0.1-0.8,0.1-1.3c0-13.1-10.7-23.8-23.9-23.8s-23.9,10.8-23.9,23.8
	c0,0.4,0.1,0.8,0.1,1.3h10c0.7,0,1.3,0.6,1.3,1.3s-0.6,1.3-1.3,1.3c0,0-11.2,0.1-11.2,0.1c-0.7,0-1.3-0.6-1.3-1.3l0,0l0,0
	c0,0,0,0,0-0.1c-0.1-0.8-0.1-1.6-0.1-2.5c0-14.5,11.8-26.3,26.4-26.3S75,258.9,75,273.4C75,274.2,75,275.1,74.9,275.9z M40.5,261
	c0.5-0.3,1.1-0.2,1.5,0.2l-0.1-0.1c11,8.1,13.3,11.7,13.4,11.8c1.8,3,0.7,6.7-2.4,8.4c-3.1,1.7-7.1,0.7-8.9-2.3
	c-0.1-0.1-2.3-3.8-4.1-16.8l0.1,0.1C39.8,261.8,40,261.3,40.5,261z M46.2,277.8c0.7,1.2,2,1.9,3.4,1.9c0.7,0,1.4-0.2,2-0.5
	c0.9-0.5,1.5-1.3,1.8-2.2c0.3-1,0.2-2-0.4-2.8c0-0.1-2-3-10.1-9.2C44.5,274.7,46.2,277.8,46.2,277.8z"/>
<path fill="#FFFFFF" d="M354.6,107.2h-40.2c-3.2,0-5.7-2.6-5.7-5.7V47c0-3.2,2.6-5.7,5.7-5.7h40.2c3.2,0,5.7,2.6,5.7,5.7v54.5
	C360.4,104.7,357.8,107.2,354.6,107.2z M357.5,47c0-1.6-1.3-2.9-2.9-2.9h-40.2c-1.6,0-2.9,1.3-2.9,2.9v54.5c0,1.6,1.3,2.9,2.9,2.9
	h40.2c1.6,0,2.9-1.3,2.9-2.9V47z M314.4,95.7V49.8l0,0h40.2l0,0v45.9l0,0H314.4L314.4,95.7z M317.3,92.9h34.4V52.7h-34.4V92.9z
	 M346,62.7h-2.9c-0.8,0-1.4-0.7-1.4-1.4v-2.9c0-0.8,0.7-1.4,1.4-1.4h2.9c0.8,0,1.4,0.7,1.4,1.4v2.9C347.4,62.1,346.8,62.7,346,62.7z
	 M336,72.8h-2.9c-0.8,0-1.4-0.7-1.4-1.4v-2.9c0-0.8,0.7-1.4,1.4-1.4h2.9c0.8,0,1.4,0.7,1.4,1.4v2.9C337.4,72.2,336.8,72.8,336,72.8z
	 M336,62.7h-2.9c-0.8,0-1.4-0.7-1.4-1.4v-2.9c0-0.8,0.7-1.4,1.4-1.4h2.9c0.8,0,1.4,0.7,1.4,1.4v2.9C337.4,62.1,336.8,62.7,336,62.7z
	 M325.9,72.8h-2.9c-0.8,0-1.4-0.7-1.4-1.4v-2.9c0-0.8,0.7-1.4,1.4-1.4h2.9c0.8,0,1.4,0.7,1.4,1.4v2.9
	C327.4,72.2,326.8,72.8,325.9,72.8z M325.9,62.7h-2.9c-0.8,0-1.4-0.7-1.4-1.4v-2.9c0-0.8,0.7-1.4,1.4-1.4h2.9c0.8,0,1.4,0.7,1.4,1.4
	v2.9C327.4,62.1,326.8,62.7,325.9,62.7z M333.1,45.5h2.9v2.9h-2.9V45.5z M334.5,97.2c1.6,0,2.9,1.3,2.9,2.9c0,1.6-1.3,2.9-2.9,2.9
	s-2.9-1.3-2.9-2.9C331.7,98.5,332.9,97.2,334.5,97.2z"/>
<g>
	<g>
		<path fill="#C4D2DF" d="M253.5,180.8c-0.8,0.3-1.6,0.6-2.5,0.7c0.9-0.5,1.6-1.4,1.9-2.4c-0.8,0.5-1.7,0.8-2.7,1
			c-0.8-0.8-1.9-1.4-3.1-1.4c-2.4,0-4.3,1.9-4.3,4.3c0,0.3,0,0.7,0.1,1c-3.6-0.2-6.7-1.9-8.8-4.5c-0.4,0.6-0.6,1.4-0.6,2.2
			c0,1.5,0.8,2.8,1.9,3.6c-0.7,0-1.4-0.2-1.9-0.5v0.1c0,2.1,1.5,3.8,3.4,4.2c-0.4,0.1-0.7,0.2-1.1,0.2c-0.3,0-0.5,0-0.8-0.1
			c0.5,1.7,2.1,2.9,4,3c-1.5,1.2-3.3,1.8-5.3,1.8c-0.3,0-0.7,0-1-0.1c1.9,1.2,4.2,1.9,6.6,1.9c7.9,0,12.2-6.5,12.2-12.2l0-0.6
			C252.2,182.4,253,181.6,253.5,180.8z"/>
	</g>
</g>
<line fill="none" x1="11" y1="64.6" x2="46.9" y2="64.8"/>
<line fill="none" x1="46.9" y1="7.2" x2="47.2" y2="66.6"/>
<line fill="none" x1="-2" y1="30.6" x2="108.1" y2="36.6"/>
<line fill="none" x1="167.5" y1="17.4" x2="163.5" y2="75.6"/>
<line fill="none" x1="-2" y1="33.6" x2="180.6" y2="36.2"/>
<line fill="none" x1="-12" y1="62" x2="-12" y2="62"/>
<line fill="none" x1="-0.9" y1="33.6" x2="109.7" y2="33.6"/>
<line fill="none" x1="-1" y1="33" x2="262" y2="33"/>
<line fill="none" x1="-2" y1="29" x2="255.4" y2="37.6"/>
<line fill="none" x1="325" y1="102" x2="325" y2="101"/>
<line fill="none" x1="258" y1="28" x2="-2" y2="29"/>
<line fill="none" x1="182.4" y1="37.6" x2="-2" y2="37.1"/>
<line fill="none" x1="110" y1="34" x2="-2" y2="34"/>
</svg>
